<svg width="200" height="200" viewBox="0 0 200 200" fill="none" xmlns="http://www.w3.org/2000/svg">
<path d="M47.5234 127.44C47.5234 127.44 49.5234 152.08 68.6434 164C87.7634 175.92 106.243 175.12 120.643 170.72C135.043 166.32 144.723 153.36 147.923 147.36C151.123 141.36 152.163 133.28 152.243 128.8L151.123 129.12C151.123 129.12 139.123 137.04 128.723 139.2C128.723 139.2 122.963 148.8 122.483 148.8C122.003 148.8 120.083 148.8 120.083 148.8L119.523 149.92C119.523 149.92 116.643 159.12 113.683 162.32L82.8034 161.92C82.8034 161.92 76.5634 156.4 75.3634 147.92L74.3234 146.48L69.8434 144.24L65.8434 136.8C65.8434 136.8 48.6434 126.8 48.5634 126.72C48.4834 126.64 48.0034 126.72 47.8434 126.72C47.7634 126.8 47.5234 127.44 47.5234 127.44Z" fill="white"/>
<path d="M116.481 65.84C110.321 62.96 105.441 62 101.121 62C97.2011 62 93.7611 62.8 90.4011 63.52C81.7611 65.6 74.1612 70.56 69.1212 77.6C64.9612 83.44 62.8012 90.08 62.7212 97.44C62.6412 103.12 64.5612 107.84 68.2412 111.52C76.5612 119.92 92.6411 121.68 104.561 121.68C112.401 121.68 137.921 120.32 138.881 103.28C139.761 88.32 130.161 72.32 116.481 65.84Z" fill="#252468"/>
<path d="M104.323 52.96C95.8426 52.96 86.0826 56.8 76.8826 63.68C67.9226 70.4 60.1626 79.44 55.1226 89.12C45.4426 107.6 47.6826 124.16 47.9226 125.6C52.2426 129.6 65.7626 136.88 65.9226 136.96C66.0026 136.96 66.0026 137.04 66.0026 137.04L70.2426 144.4L75.1226 147.04C75.5226 145.04 77.2826 137.28 78.8826 136.16C80.7226 134.96 108.963 135.2 112.803 136.48C116.723 137.76 119.523 147.04 119.923 148.64H122.323C122.883 148 126.323 142.56 128.403 139.2C128.483 139.12 128.483 139.12 128.563 139.04C140.323 136.24 150.883 128.96 152.083 128.16C153.443 106.48 145.283 84 130.243 68C121.683 58.72 111.683 52.96 104.323 52.96ZM139.523 103.28C138.483 120.88 112.563 122.24 104.563 122.24C92.4826 122.24 76.2426 120.48 67.7626 111.92C63.9226 108.08 62.0826 103.2 62.0826 97.36C62.1626 89.92 64.3226 83.12 68.5626 77.2C73.6826 70.08 81.3626 65.04 90.2426 63.04C97.0426 61.52 104.723 59.76 116.643 65.36C123.283 68.48 129.283 74 133.443 80.88C137.843 87.84 139.923 95.84 139.523 103.28Z" fill="white"/>
<path d="M82.7997 161.76C82.8797 161.76 82.8797 161.76 82.7997 161.76C83.5997 162.72 113.12 163.2 113.12 163.2C113.2 163.12 117.68 156.72 119.44 148.88C119.2 148 116.32 138.16 112.64 136.96C110.64 136.32 102.32 135.92 95.0397 135.84C86.7197 135.76 79.9997 136.08 79.2797 136.56C77.9997 137.44 76.2397 144.64 75.6797 147.44C75.8397 155.44 82.7197 161.68 82.7997 161.76Z" fill="#3CC5EF"/>
<path d="M67.5163 147.12C67.6763 147.28 75.5163 150.72 75.5163 150.72C75.2763 149.68 75.1163 148.64 75.1163 147.6L69.9963 144.88C69.9163 144.88 69.9163 144.8 69.9163 144.8L65.6762 137.44C64.7962 136.96 53.5963 130.08 48.1562 126.56C48.3963 127.36 48.0762 129.2 48.6362 131.12C48.6362 131.12 61.5163 138 63.5163 139.2C65.4363 140.4 67.3563 146.96 67.5163 147.12Z" fill="#232664"/>
<path d="M125.203 150.8C125.363 150.64 129.203 142.56 131.443 141.68C133.683 140.8 150.963 133.76 152.163 133.28C152.723 131.44 152.083 129.44 152.323 128.64C147.923 131.2 136.563 137.76 128.963 139.6C123.043 149.2 122.803 149.2 122.563 149.2H120.003C119.763 150.16 119.523 151.12 119.203 152C119.203 152 125.043 150.96 125.203 150.8Z" fill="#232664"/>
<path d="M83.9237 160.32C85.6037 162.4 88.1637 161.84 90.8037 162.16L97.5237 162.08L106.084 162.4C108.804 162.32 110.884 162.96 112.244 160.56C112.804 159.52 113.444 158.56 113.844 157.68C115.764 153.68 116.724 151.36 117.204 147.68C117.204 147.68 114.564 153.68 109.444 157.2C104.324 160.72 97.5237 159.92 97.5237 159.92C97.5237 159.92 90.6437 160.24 85.5237 156.72C80.4037 153.2 77.8438 147.68 77.8438 147.68C78.3238 151.36 80.1637 154.64 82.0037 157.68C82.6437 158.56 83.2037 159.44 83.9237 160.32Z" fill="#232664"/>
<path d="M127.364 136.32L149.284 126.08C149.364 124.48 149.124 119.92 149.124 119.92C145.444 122.88 134.564 127.52 134.564 127.52L134.324 124.96C134.244 123.68 132.804 122.96 131.684 123.68C119.044 132.08 100.164 131.76 100.164 131.76C100.164 131.76 81.2836 132.08 68.6436 123.68C67.6036 122.96 66.1636 123.68 66.0036 124.96L65.7636 127.52C65.7636 127.52 54.8836 122.88 51.2036 119.92C51.2036 119.92 49.9236 122.48 50.0036 124.08L67.8436 134.48L71.6836 142.4L75.7636 144.4C76.4836 141.28 77.7636 136.96 78.9636 136.16C80.8036 134.96 109.044 135.2 112.884 136.48C115.924 137.52 118.244 143.36 119.364 146.64L121.844 146.32L127.364 136.32Z" fill="#252468"/>
<path d="M57.5963 143.04C58.1563 143.36 61.5963 144.24 61.7563 144.48C61.9163 144.72 64.9563 149.6 66.3963 151.12C66.3963 151.12 63.0363 143.6 62.8763 143.36C62.7163 143.12 55.9963 140.96 55.9963 141.12C55.9163 141.2 57.0363 142.72 57.5963 143.04Z" fill="white"/>
<path d="M135.841 144.48C136.001 144.32 139.441 143.44 140.001 143.04C140.561 142.72 141.681 141.2 141.681 141.12C141.681 140.96 134.961 143.12 134.801 143.36C134.641 143.6 131.281 151.12 131.281 151.12C132.641 149.6 135.681 144.64 135.841 144.48Z" fill="white"/>
<path d="M118.396 145.52C117.836 143.04 114.796 139.44 113.996 137.68C113.756 137.28 113.516 136.96 113.276 136.64L113.196 136.56C112.716 136.24 109.676 136 105.356 135.92C102.956 135.92 100.316 135.84 98.0763 135.84C97.8363 135.84 97.5963 135.84 97.4363 135.84C97.0363 135.84 96.6363 135.84 96.2363 135.84C95.8363 135.84 95.4363 135.84 95.0363 135.84C94.7963 135.84 94.5563 135.84 94.3963 135.84C92.1563 135.84 89.5163 135.84 87.1163 135.92C82.7963 136 79.7563 136.24 79.2763 136.56L79.1963 136.64C78.9563 136.88 78.7163 137.28 78.4763 137.68C77.5963 139.44 76.7162 142.72 76.1562 145.2C76.1562 145.44 76.1563 145.68 76.2363 145.84C76.2363 145.84 80.3162 138.24 80.5562 138.08C80.7162 138 86.8763 138 92.2363 138V138.08C92.2363 138.08 110.716 138.16 112.076 139.12C113.836 140.4 118.796 147.6 118.796 147.6C118.876 147.52 118.396 145.76 118.396 145.52Z" fill="white"/>
<path d="M87.1172 135.92C89.5172 135.92 92.1572 135.84 94.3972 135.84C91.7572 135.84 89.2772 135.92 87.1172 135.92Z" fill="#232664"/>
<path d="M87.1172 135.92C89.5172 135.92 92.1572 135.84 94.3972 135.84C91.7572 135.84 89.2772 135.92 87.1172 135.92Z" fill="white"/>
<path d="M61.5173 94.48C61.5173 94.48 57.7573 104.64 66.3973 113.2C75.0373 121.76 86.3973 124.8 106.637 124.32C126.877 123.84 135.357 118.88 139.277 111.52C143.197 104.16 139.277 94.64 139.277 94.64C139.277 94.64 142.957 108.72 130.477 116.08C117.917 123.44 94.1573 123.84 77.8373 117.76C61.5173 111.68 62.1573 98.56 61.5173 94.48Z" fill="white"/>
<path d="M89.6969 86.7284C90.2175 82.1628 88.6466 78.2344 86.1882 77.9541C83.7298 77.6737 81.3148 81.1476 80.7942 85.7132C80.2736 90.2788 81.8445 94.2072 84.3029 94.4876C86.7613 94.7679 89.1763 91.294 89.6969 86.7284Z" fill="#5DB075"/>
<path d="M122.392 89.3303C122.913 84.7647 121.342 80.8363 118.884 80.556C116.425 80.2757 114.01 83.7496 113.49 88.3152C112.969 92.8808 114.54 96.8092 116.998 97.0895C119.457 97.3698 121.872 93.8959 122.392 89.3303Z" fill="#5DB075"/>
<path d="M74.8828 151.36C74.8828 151.36 79.3628 163.2 81.7628 163.92C84.2428 164.64 114.403 164.8 114.403 164.8C114.403 164.8 117.843 160.32 118.803 154.64C118.803 154.64 113.363 162.32 113.043 162.4C112.643 162.48 82.8028 162 82.8028 162L74.8828 151.36Z" fill="white"/>
<path d="M51.3594 140.56C51.3594 140.56 67.7594 169.44 100.079 169.44C132.399 169.44 149.039 144.32 149.039 144.32C149.039 144.32 140.079 173.68 102.639 173.68C65.1994 173.68 54.1594 149.84 51.3594 141.12" fill="#252468"/>
<path d="M122.478 149.84H119.758C119.358 149.84 118.958 149.52 118.878 149.12C117.758 145.12 115.118 138.4 112.478 137.6C108.478 136.24 81.7579 136.32 79.5979 137.2C78.7979 137.84 77.1979 143.12 76.3179 147.68C76.2379 148 76.0779 148.24 75.8379 148.32C75.5979 148.48 75.2779 148.4 75.0379 148.32L69.7579 145.52C69.5979 145.44 69.4379 145.28 69.3579 145.2L65.1979 138C63.1979 136.8 51.1179 130.16 47.0379 126.4C46.8779 126.24 46.7979 126.08 46.7179 125.92C46.5579 125.2 43.7579 108.24 53.9979 88.56C59.1979 78.72 67.0379 69.52 76.1579 62.72C85.5979 55.6 95.5979 51.76 104.318 51.76C112.158 51.76 122.238 57.52 131.198 67.12C138.158 74.56 143.838 83.6 147.758 93.36C152.238 104.72 154.158 116.48 153.358 128.4C153.358 128.64 153.198 128.96 152.958 129.12C152.478 129.44 141.758 137.12 129.278 140.24C128.798 140.96 127.678 142.88 126.478 144.72C123.198 149.84 123.118 149.84 122.478 149.84ZM120.478 147.92H122.078C122.958 146.8 125.918 142.08 127.918 138.8C128.078 138.56 128.238 138.48 128.478 138.4C139.518 135.76 149.598 129.12 151.518 127.76C152.718 106.32 144.638 84.16 129.838 68.32C121.358 59.28 111.518 53.6 104.318 53.6C95.9979 53.6 86.3979 57.36 77.2779 64.24C68.3979 70.88 60.7179 79.84 55.7579 89.44C46.5579 107.04 48.2379 122.88 48.5579 125.28C53.0379 129.2 66.1579 136.32 66.2379 136.4C66.3979 136.48 66.4779 136.64 66.6379 136.72L70.7979 143.92L74.7979 146.08C75.5179 142.88 77.0379 136.72 78.6379 135.6C79.9979 134.64 90.6379 134.64 95.1179 134.72C102.318 134.8 110.798 135.12 113.118 135.84C117.038 137.12 119.678 145.36 120.478 147.92Z" fill="#252468"/>
<path d="M111.283 163.36C99.1225 163.36 82.8025 162.96 82.6425 162.96C82.4025 162.96 82.2425 162.88 82.0825 162.72C81.7625 162.48 74.6425 156 74.5625 147.44C74.5625 146.96 74.9625 146.48 75.4425 146.48C75.9225 146.48 76.3225 146.88 76.4025 147.36C76.4825 154.24 81.8425 159.84 83.0425 161.04C85.6025 161.12 101.923 161.52 113.202 161.44C114.162 160.08 117.443 155.2 118.883 148.64C118.963 148.16 119.522 147.84 120.002 147.92C120.482 148 120.802 148.56 120.722 149.04C118.882 157.2 114.643 162.72 114.403 162.96C114.243 163.2 113.923 163.28 113.683 163.28C112.883 163.36 112.083 163.36 111.283 163.36Z" fill="#232561"/>
<path d="M104.558 122.88C92.3179 122.88 75.9179 121.04 67.3579 112.4C63.4379 108.48 61.4379 103.44 61.5179 97.4401C61.5979 89.8401 63.8379 82.9601 68.1579 76.9601C73.3579 69.6801 81.1979 64.5601 90.1579 62.5601C97.0379 60.9601 104.798 59.2001 116.958 64.8801C123.758 68.0801 129.838 73.6801 134.078 80.6401C138.398 87.7601 140.558 95.8401 140.078 103.44C139.678 110.72 135.118 116.08 126.718 119.36C118.798 122.4 109.438 122.88 104.558 122.88ZM90.5579 64.2401C81.9979 66.1601 74.5579 71.0401 69.5979 77.9201C65.4379 83.6801 63.3579 90.1601 63.2779 97.3601C63.2779 102.8 65.0379 107.44 68.5579 111.04C76.7179 119.28 92.5579 120.96 104.478 120.96C112.158 120.96 137.198 119.68 138.158 103.2C139.038 88.5601 129.518 72.7201 116.078 66.4801C104.638 61.0401 97.4379 62.6401 90.5579 64.2401Z" fill="#252468"/>
<path d="M99.9169 174.64C84.7969 174.64 71.7569 169.52 61.0369 159.44C54.0769 152.88 50.5569 144.08 48.8769 137.84C47.0369 131.12 46.7969 126 46.7969 125.76C46.7969 125.28 47.1969 124.8 47.6769 124.8C48.1569 124.8 48.6369 125.2 48.6369 125.68C48.6369 125.92 49.5969 146.08 62.3169 158.08C76.8769 171.84 95.8369 175.92 118.637 170.4C138.957 165.44 151.517 144.64 151.597 128.24C151.597 127.76 151.997 127.28 152.557 127.28C153.037 127.28 153.517 127.68 153.517 128.24C153.517 137.12 150.077 146.8 144.157 154.88C137.757 163.68 128.877 169.76 119.197 172.16C112.317 173.84 105.997 174.64 99.9169 174.64Z" fill="#252468"/>
<path d="M138.481 48.9599C139.041 47.5999 139.041 46.2399 138.481 44.9599C137.441 42.6399 134.961 41.0399 133.441 40.6399C131.521 40.0799 129.761 41.1199 128.961 41.5999C132.321 43.4399 135.601 45.8399 138.481 48.9599Z" fill="#5DB075"/>
<path d="M62.7183 74.56C63.4383 73.92 66.2383 71.6 70.7983 69.6C74.3983 68 79.6783 66.4 86.3983 66.4C88.8783 66.4 91.4383 66.64 94.2383 67.12C106.878 69.44 121.998 76.88 133.518 84.08C121.678 68.56 106.398 60.72 95.5183 56.8C83.4383 52.48 73.9983 52 73.9183 52C73.7583 52 60.7983 51.28 58.0783 58.32C55.5183 64.96 58.7983 71.04 62.7183 74.56Z" fill="#545580"/>
<path d="M129.92 56.08C130.64 63.52 125.04 71.52 124 72.96C127.84 76.4 131.52 80.32 134.88 84.96C140.24 88.4 144.64 91.68 147.52 94.16C148.4 91.52 153.12 75.76 143.76 57.6C142.16 54.56 140.4 51.92 138.4 49.68L138.32 49.6C135.36 46.24 131.92 43.76 128.4 41.92C128.32 41.92 128.24 41.92 128.24 41.84C124.32 39.84 120.24 38.56 116.32 37.76C120.16 39.84 128.72 45.52 129.92 56.08Z" fill="#5DB075"/>
<path d="M123.601 72.88C124.641 71.44 130.081 63.6 129.361 56.48C127.841 43.68 115.281 38.24 114.241 37.84C107.921 36.88 102.081 37.2 98.4006 37.68C95.1206 38.08 92.0006 38.96 89.2806 40.32C81.4406 44.08 76.0006 50.24 74.6406 51.84C76.8806 52 85.3606 52.88 95.8406 56.64C103.681 59.44 114.001 64.4 123.601 72.88Z" fill="#5DB075"/>
<g opacity="0.25">
<path d="M63.5178 58.72C58.3178 64.32 63.1178 71.28 64.5578 73.12C65.9178 72.08 68.0778 70.8 70.7978 69.6C74.3978 68 79.6778 66.4 86.3978 66.4C88.8778 66.4 91.4378 66.64 94.2378 67.12C103.598 68.8 114.238 73.36 123.838 78.48C125.678 79.44 126.718 80.08 126.718 80.08C106.638 58.56 69.5978 52.16 63.5178 58.72Z" fill="#252468"/>
</g>
<g opacity="0.05">
<path d="M117.041 41.84C117.041 46.88 107.681 55.52 96.8009 52.72C85.9209 49.92 86.6409 43.84 86.6409 43.84C80.8809 46.8 76.9609 51.68 76.9609 51.68C80.7209 52.16 87.6009 53.36 95.6809 56.24C103.121 58.88 112.641 63.44 121.681 70.96C123.601 68.24 126.641 63.28 126.641 57.44C125.681 46.08 117.041 41.84 117.041 41.84Z" fill="#252468"/>
</g>
<g opacity="0.05">
<path d="M146.482 72.56C146.482 72.56 144.562 73.92 138.882 71.36C133.122 68.8 129.922 60.96 129.922 60.96C129.842 60.88 129.682 61.12 129.442 61.44C128.162 67.04 124.722 71.92 123.922 72.96C127.762 76.4 131.442 80.32 134.802 84.96C139.122 87.76 142.882 90.4 145.682 92.72C148.962 83.2 146.482 72.56 146.482 72.56Z" fill="#252468"/>
</g>
<g opacity="0.25">
<path d="M137.757 46.32C137.437 45.2 135.037 43.52 133.597 42.88C132.477 42.4 131.517 42.64 131.117 42.8C133.437 44.24 135.677 46 137.757 48.16C137.837 47.84 137.997 47.12 137.757 46.32Z" fill="#232664"/>
</g>
<g opacity="0.4">
<path d="M65.278 54.56C73.438 51.84 102.878 57.76 118.238 69.04C110.158 62.96 101.998 59.2 95.518 56.8C83.438 52.48 73.998 52 73.918 52C73.758 52 60.798 51.28 58.078 58.32C56.638 62 57.038 65.6 58.318 68.56C58.158 65.68 58.318 56.88 65.278 54.56Z" fill="white"/>
</g>
<g opacity="0.4">
<path d="M140.56 55.28C145.04 62.08 147.6 68.88 148.72 72.16C147.92 67.68 146.4 62.72 143.76 57.6C142.16 54.56 140.4 51.92 138.4 49.68L138.32 49.6C135.36 46.24 131.92 43.76 128.4 41.92C128.32 41.92 128.24 41.92 128.24 41.84C124.32 39.84 120.24 38.56 116.32 37.76C117.68 38.48 119.52 39.6 121.44 41.12C123.12 41.84 134.8 46.56 140.56 55.28Z" fill="white"/>
</g>
<path d="M147.684 95.6C147.444 95.6 147.204 95.52 147.044 95.36C139.924 88.96 114.644 72.08 94.0837 68.32C84.0037 66.48 76.2437 68.56 71.4437 70.64C66.2437 72.88 63.4437 75.6 63.4437 75.6C63.1237 75.92 62.5637 75.92 62.1637 75.6C57.8437 71.84 54.2437 65.12 57.0437 57.76C59.7637 50.64 71.0437 50.56 73.6037 50.64C74.9637 49.04 80.4837 42.64 88.7237 38.72C91.6037 37.36 94.8037 36.4 98.2437 36C104.724 35.2 114.404 35.04 124.004 38.56C133.364 42 140.404 48.24 144.964 56.96C150.404 67.6 151.124 77.28 150.804 83.6C150.404 90.48 148.724 94.72 148.644 94.88C148.564 95.2 148.324 95.36 148.004 95.44C147.764 95.6 147.684 95.6 147.684 95.6ZM86.4037 65.76C88.8837 65.76 91.5237 66 94.4037 66.48C113.284 69.92 137.604 84.8 147.284 93.04C147.764 91.36 148.644 87.92 148.884 83.52C149.204 77.44 148.564 68.08 143.284 57.92C132.164 36.4 108.244 36.8 98.4837 37.92C95.2837 38.32 92.2437 39.12 89.5237 40.48C80.6437 44.72 74.8037 52.16 74.7237 52.24C74.5637 52.48 74.2437 52.64 73.9237 52.56C73.7637 52.56 61.2837 51.84 58.7237 58.48C56.4037 64.64 59.2037 70.24 62.7237 73.68C63.8437 72.72 66.5637 70.72 70.5637 68.96C74.2437 67.44 79.6037 65.76 86.4037 65.76Z" fill="#252468"/>
<path d="M134.727 86.1601C134.407 86.1601 134.167 86.0001 134.007 85.7601C122.167 69.5201 106.487 61.3601 95.3669 57.3601C83.3669 53.0401 74.0069 52.5601 73.9269 52.5601C73.4469 52.5601 73.0469 52.0801 73.0469 51.6001C73.0469 51.1201 73.5269 50.7201 74.0069 50.7201C74.4069 50.7201 83.6869 51.2001 95.9269 55.6001C107.287 59.6801 123.287 68.0001 135.447 84.6401C135.767 85.0401 135.687 85.6001 135.207 85.9201C135.127 86.0801 134.887 86.1601 134.727 86.1601Z" fill="#252468"/>
<path d="M123.602 73.9201C123.442 73.9201 123.202 73.8401 123.042 73.7601C122.642 73.4401 122.562 72.8801 122.882 72.4801C122.962 72.4001 129.442 63.8401 128.722 56.3201C127.202 43.4401 114.082 38.1601 113.922 38.1601C113.442 38.0001 113.202 37.4401 113.362 36.9601C113.522 36.4801 114.082 36.2401 114.562 36.4001C114.722 36.4801 118.162 37.8401 121.922 40.8801C126.882 44.9601 129.842 50.2401 130.562 56.0801C131.362 64.4001 124.642 73.2001 124.322 73.6001C124.162 73.7601 123.842 73.9201 123.602 73.9201Z" fill="#252468"/>
<path d="M138.562 50.4C138.402 50.4 138.322 50.4 138.162 50.32C137.682 50.08 137.522 49.52 137.762 49.12C138.402 47.76 138.482 46.48 137.922 45.2C137.042 43.04 134.642 41.6 133.282 41.2C131.202 40.56 129.042 42.32 129.042 42.32C128.642 42.64 128.082 42.64 127.762 42.24C127.442 41.84 127.442 41.28 127.842 40.96C127.922 40.88 130.802 38.48 133.842 39.44C135.842 40.08 138.482 41.92 139.602 44.48C140.322 46.24 140.242 48.08 139.362 49.92C139.202 50.24 138.882 50.4 138.562 50.4Z" fill="#252468"/>
<path d="M97.1205 92.16L103.44 92.56C104.4 92.64 105.04 93.6 104.64 94.48C103.92 96.16 102.48 98.48 99.8405 98.4C97.2005 98.32 96.0804 95.76 95.6004 93.92C95.4404 93.04 96.1605 92.16 97.1205 92.16Z" fill="#5DB075"/>
<path opacity="0.2" d="M102.322 190.56C124.458 190.56 142.402 188.948 142.402 186.96C142.402 184.972 124.458 183.36 102.322 183.36C80.1866 183.36 62.2422 184.972 62.2422 186.96C62.2422 188.948 80.1866 190.56 102.322 190.56Z" fill="#232664"/>
<path d="M116.236 102.56H79.1963C75.2763 102.56 72.1562 105.68 72.1562 109.6V155.2C72.1562 159.12 75.2763 162.24 79.1963 162.24H116.236C120.156 162.24 123.276 159.12 123.276 155.2V109.6C123.276 105.76 120.076 102.56 116.236 102.56Z" fill="#5DB075"/>
<g opacity="0.05">
<path d="M115.839 147.6C113.919 151.68 109.119 151.68 109.119 151.68H97.7591H86.3991C86.3991 151.68 81.5991 151.68 79.6791 147.6C77.7591 143.52 77.0391 128.08 75.0391 122.72V155.2C75.0391 155.2 76.2391 159.6 79.1991 159.6C82.1591 159.6 97.7591 159.6 97.7591 159.6C97.7591 159.6 113.439 159.6 116.319 159.6C119.279 159.6 120.479 155.2 120.479 155.2V122.72C118.479 128.08 117.759 143.52 115.839 147.6Z" fill="#252468"/>
</g>
<g opacity="0.4">
<path d="M116.236 102.56H97.7563H79.1963C75.2763 102.56 72.1562 105.68 72.1562 109.6V127.28L72.7963 126.4C72.7963 126.4 74.7163 108.72 74.7163 108.48C74.7163 108.24 76.8763 104.88 80.3163 104.88C83.7563 104.88 97.6763 104.88 97.6763 104.88C97.6763 104.88 111.676 104.88 115.036 104.88C118.396 104.88 120.636 108.24 120.636 108.48C120.636 108.72 122.556 126.4 122.556 126.4L123.196 127.36V109.6C123.276 105.76 120.076 102.56 116.236 102.56Z" fill="white"/>
</g>
<path d="M96.8828 111.2H102.323C102.323 111.2 103.203 109.68 102.483 109.04C101.763 108.48 100.323 108.32 100.083 108.24C99.8428 108.08 99.2028 106.24 98.0028 106.08C96.8028 105.92 96.4028 106.24 96.2428 106.4C96.0828 106.56 95.6828 107.76 95.6828 107.76C95.6828 107.76 93.8428 108.32 93.6028 108.48C93.3628 108.64 92.8028 109.92 92.8828 110C92.9628 110.08 93.1228 110.56 93.2828 110.72C93.4428 110.88 94.4028 111.2 94.4028 111.2H96.8828Z" fill="#545580"/>
<path d="M116.241 163.52H79.2009C74.6409 163.52 70.9609 159.84 70.9609 155.28V109.68C70.9609 105.12 74.6409 101.44 79.2009 101.44H116.241C120.801 101.44 124.481 105.12 124.481 109.68V155.28C124.481 159.84 120.801 163.52 116.241 163.52ZM79.2009 103.2C75.6809 103.2 72.8009 106.08 72.8009 109.6V155.2C72.8009 158.72 75.6809 161.6 79.2009 161.6H116.241C119.761 161.6 122.641 158.72 122.641 155.2V109.6C122.641 106.08 119.761 103.2 116.241 103.2H79.2009Z" fill="#252468"/>
<path d="M101.04 112.08H94.4C93.04 112.08 92 111.04 92 109.68C92 108.32 93.04 107.28 94.4 107.28H94.8C95.04 105.92 96.24 104.88 97.68 104.88C99.12 104.88 100.32 105.92 100.56 107.28H100.96C102.32 107.28 103.36 108.32 103.36 109.68C103.44 111.04 102.32 112.08 101.04 112.08ZM94.4 109.12C94.08 109.12 93.84 109.36 93.84 109.68C93.84 110 94.08 110.24 94.4 110.24H100.96C101.28 110.24 101.52 110 101.52 109.68C101.52 109.36 101.28 109.12 100.96 109.12H99.6C99.28 109.12 99.04 108.96 98.88 108.8C98.72 108.56 98.64 108.32 98.72 108C98.72 107.92 98.72 107.84 98.72 107.76C98.72 107.2 98.24 106.72 97.68 106.72C97.12 106.72 96.64 107.2 96.64 107.76C96.64 107.84 96.64 107.92 96.64 108C96.72 108.24 96.64 108.56 96.48 108.8C96.32 109.04 96 109.12 95.76 109.12H94.4Z" fill="#252468"/>
<path d="M48.2369 120C47.1969 118.16 46.8769 116.32 46.7169 115.28C44.2369 118.32 43.1969 121.6 42.7969 124.56C43.8369 123.36 45.8369 121.12 48.2369 120Z" fill="url(#paint0_linear_1614_52930)"/>
<path d="M69.0435 133.28C68.4035 136.48 67.8435 142.24 70.8835 147.6C73.4435 148.56 75.4435 148.32 76.8035 146.88C79.2035 144.48 79.3635 138.96 78.0035 135.68C76.2435 131.52 70.1635 132.96 69.0435 133.28Z" fill="#545580"/>
<path d="M68.4831 132.96C68.4831 132.88 68.4831 132.88 68.4831 132.8C68.7231 131.76 68.9631 131.04 69.0431 130.64C64.8831 128.88 61.4431 126.08 59.2031 124.24C57.9231 123.2 56.8831 122.32 56.3231 122.16C54.8031 121.84 52.1631 123.28 52.0031 123.36C51.6831 123.6 44.9631 128.88 44.5631 135.92C44.0031 138.88 45.7631 144.72 45.7631 144.8C45.7631 144.8 48.0031 150 56.7231 150C56.8831 150 56.9631 150 57.1231 150C65.0431 149.84 69.1231 148.08 70.1631 147.52C67.2031 142.16 67.7631 136.24 68.4831 132.96Z" fill="white"/>
<path d="M51.3633 123.28C50.1633 122.56 49.2833 121.6 48.6433 120.56C45.6833 121.92 43.2833 125.12 42.8033 125.76C42.5633 129.76 43.5233 133.12 44.1633 134.8C45.0433 128.8 49.9233 124.4 51.3633 123.28Z" fill="#5DB075"/>
<path d="M78.8828 141.52C79.0428 139.76 78.8028 138 78.3228 136.48L78.0028 136C77.5228 138.16 70.8028 142.96 68.8828 141.84C69.2028 143.52 69.7628 145.28 70.6428 147.04C76.2428 147.44 78.3228 143.68 78.8828 141.52Z" fill="#232664"/>
<path d="M42.7174 125.76C42.4774 129.76 43.4374 133.12 44.0774 134.8C44.4774 132.16 45.6774 129.76 47.0374 127.92C46.1574 126.16 45.6774 124.4 45.4374 122.72C44.0774 124 43.0374 125.36 42.7174 125.76Z" fill="#252468"/>
<path d="M45.4369 117.12C43.8369 119.6 43.1169 122.16 42.7969 124.56C43.3569 123.84 44.2369 122.88 45.3569 121.92C45.1969 119.76 45.3569 118 45.4369 117.12Z" fill="#252468"/>
<path d="M57.2013 148.72C63.6813 148.48 68.2413 146.32 69.2813 145.76C68.4813 143.76 68.0813 141.68 67.9213 139.76C67.6013 137.36 68.1613 134.56 68.1613 134.56C68.1613 134.56 64.4813 140.16 57.3613 141.28C50.9613 142.32 45.5213 138.4 44.6413 135.76C44.6413 135.84 44.6413 136 44.6413 136.08C44.0813 139.04 45.8413 144.88 45.8413 144.96C45.8413 144.96 46.3213 146 47.6013 147.2C49.2013 147.84 52.3213 148.88 57.2013 148.72Z" fill="#252468"/>
<path d="M55.1181 124.32C55.9981 124.56 62.6381 130.08 68.7181 131.84C68.8781 131.36 68.9581 130.96 69.0381 130.72C64.8781 128.96 61.4381 126.16 59.1981 124.32C57.9181 123.28 56.8781 122.4 56.3181 122.24C54.7981 121.92 52.1581 123.36 51.9981 123.44C51.9181 123.52 51.0381 124.24 49.8381 125.36L48.0781 127.6C48.1581 127.68 54.2381 124.16 55.1181 124.32Z" fill="white"/>
<path d="M48.2419 120C47.2019 118.16 46.8819 116.32 46.7219 115.28C46.4819 115.6 46.1619 116 45.9219 116.32C46.0019 117.2 46.2419 118.96 47.0419 120.64C47.4419 120.4 47.8419 120.24 48.2419 120Z" fill="white"/>
<path d="M77.3587 134.56C75.0387 131.84 70.0788 132.96 69.0388 133.28C68.9588 133.76 68.7988 134.32 68.7188 134.96C69.8388 134.64 74.7187 133.52 77.3587 134.56Z" fill="white"/>
<path d="M48.5594 120.56C48.1594 120.72 47.7594 120.96 47.3594 121.28C47.9994 122.48 48.7994 123.6 50.0794 124.4C50.6394 123.92 51.0394 123.52 51.3594 123.28C50.1594 122.48 49.2794 121.52 48.5594 120.56Z" fill="white"/>
<path d="M44.3178 136.96C43.9978 136.96 43.6778 136.8 43.5178 136.48C43.4378 136.32 41.9978 133.36 41.5978 129.12C41.1978 125.2 41.7578 119.36 46.3978 114C46.6378 113.68 47.0378 113.6 47.4378 113.76C47.8378 113.92 48.0778 114.24 48.0778 114.64C48.0778 114.72 48.1578 120.08 52.4778 122.48C52.7178 122.64 52.9578 122.88 52.9578 123.2C52.9578 123.52 52.8778 123.84 52.5578 124C52.4778 124.08 45.7578 129.28 45.3578 136.16C45.3578 136.56 45.0378 136.96 44.6378 137.04C44.3978 136.96 44.3978 136.96 44.3178 136.96ZM46.3978 116.88C43.9978 120.4 42.9578 124.4 43.3578 128.88C43.5178 130.24 43.7578 131.52 43.9978 132.56C45.3578 128.16 48.6378 124.88 50.3178 123.36C47.8378 121.44 46.7978 118.8 46.3978 116.88Z" fill="#252468"/>
<path d="M42.3999 126.64C42.2399 126.64 41.9999 126.56 41.8399 126.48C41.4399 126.16 41.2799 125.6 41.5999 125.2C41.7599 125.04 44.5599 120.96 48.3199 119.36C48.7999 119.12 49.3599 119.36 49.5199 119.84C49.7599 120.32 49.5199 120.88 49.0399 121.04C45.8399 122.4 43.1999 126.16 43.1199 126.24C43.0399 126.48 42.7199 126.64 42.3999 126.64Z" fill="#252468"/>
<path d="M56.7979 151.36C47.1979 151.36 44.7979 145.6 44.7179 145.36V145.28C44.6379 145.04 42.8779 139.12 43.4379 135.84C43.5179 135.36 43.9979 135.04 44.4779 135.12C44.9579 135.2 45.2779 135.68 45.1979 136.16C44.7179 138.88 46.2379 144.16 46.3979 144.64C46.6379 145.12 48.7979 149.44 56.7979 149.44C56.9579 149.44 57.0379 149.44 57.1979 149.44C63.9179 149.36 67.8379 148 69.4379 147.36C65.9979 140.48 67.5979 133.44 68.3979 131.04C64.3979 129.28 61.1179 126.56 58.8779 124.72C57.8379 123.84 56.6379 122.88 56.2379 122.8C55.2779 122.56 53.3579 123.36 52.3979 124C51.9179 124.24 51.3579 124.08 51.1179 123.68C50.8779 123.2 51.0379 122.64 51.4379 122.4C51.7579 122.24 54.7179 120.56 56.6379 121.04C57.4379 121.2 58.4779 122.08 59.9979 123.36C62.3979 125.36 65.6779 128 69.8379 129.68C70.3179 129.84 70.5579 130.4 70.3179 130.88C70.3179 130.96 67.0379 139.6 71.4379 147.36C71.6779 147.76 71.5179 148.32 71.1179 148.64C70.9579 148.72 66.7179 151.28 57.1979 151.44C57.1179 151.36 56.9579 151.36 56.7979 151.36Z" fill="#252468"/>
<path d="M73.6766 149.44C72.7166 149.44 71.5966 149.2 70.3166 148.72C69.8366 148.56 69.5966 148 69.8366 147.52C69.9966 147.04 70.5566 146.8 71.0366 147.04C73.3566 148 75.1966 147.76 76.3966 146.56C78.5566 144.32 78.7966 139.04 77.4366 136C75.7566 132 69.1166 133.92 69.0366 134C68.5566 134.16 67.9966 133.84 67.9166 133.36C67.7566 132.88 68.0766 132.32 68.5566 132.24C68.8766 132 76.7966 129.6 79.1966 135.2C80.7166 138.88 80.5566 144.88 77.7566 147.76C76.8766 148.56 75.5966 149.44 73.6766 149.44Z" fill="#252468"/>
<path d="M151.359 120C152.399 118.16 152.719 116.32 152.879 115.28C155.359 118.32 156.399 121.6 156.799 124.56C155.759 123.36 153.759 121.12 151.359 120Z" fill="url(#paint1_linear_1614_52930)"/>
<path d="M130.559 133.28C131.199 136.48 131.759 142.24 128.719 147.6C126.159 148.56 124.159 148.32 122.799 146.88C120.399 144.48 120.239 138.96 121.599 135.68C123.359 131.52 129.439 132.96 130.559 133.28Z" fill="#545580"/>
<path d="M131.203 132.96C131.203 132.88 131.203 132.88 131.203 132.8C130.963 131.76 130.723 131.04 130.643 130.64C134.803 128.88 138.243 126.08 140.483 124.24C141.763 123.2 142.803 122.32 143.363 122.16C144.883 121.84 147.523 123.28 147.683 123.36C148.003 123.6 154.723 128.88 155.123 135.92C155.683 138.88 153.923 144.72 153.923 144.8C153.923 144.8 151.683 150 142.963 150C142.803 150 142.723 150 142.563 150C134.643 149.84 130.563 148.08 129.523 147.52C132.403 142.16 131.843 136.24 131.203 132.96Z" fill="white"/>
<path d="M148.32 123.28C149.52 122.56 150.4 121.6 151.04 120.56C154 121.92 156.4 125.12 156.88 125.76C157.12 129.76 156.16 133.12 155.52 134.8C154.64 128.8 149.68 124.4 148.32 123.28Z" fill="#5DB075"/>
<path d="M120.799 141.52C120.639 139.76 120.879 138 121.359 136.48L121.679 136C122.159 138.16 128.879 142.96 130.799 141.84C130.479 143.52 129.919 145.28 129.039 147.04C123.439 147.44 121.359 143.68 120.799 141.52Z" fill="#232664"/>
<path d="M156.883 125.76C157.123 129.76 156.162 133.12 155.522 134.8C155.122 132.16 153.923 129.76 152.562 127.92C153.443 126.16 153.923 124.4 154.163 122.72C155.602 124 156.643 125.36 156.883 125.76Z" fill="#252468"/>
<path d="M154.156 117.12C155.756 119.6 156.476 122.16 156.796 124.56C156.236 123.84 155.356 122.88 154.236 121.92C154.476 119.76 154.316 118 154.156 117.12Z" fill="#252468"/>
<path d="M142.4 148.72C135.92 148.48 131.36 146.32 130.32 145.76C131.12 143.76 131.52 141.68 131.68 139.76C132 137.36 131.44 134.56 131.44 134.56C131.44 134.56 135.12 140.16 142.24 141.28C148.64 142.32 154.08 138.4 154.96 135.76C154.96 135.84 154.96 136 154.96 136.08C155.52 139.04 153.76 144.88 153.76 144.96C153.76 144.96 153.28 146 152 147.2C150.48 147.84 147.36 148.88 142.4 148.72Z" fill="#252468"/>
<path d="M144.483 124.32C143.603 124.56 136.963 130.08 130.883 131.84C130.723 131.36 130.643 130.96 130.562 130.72C134.722 128.96 138.163 126.16 140.403 124.32C141.683 123.28 142.723 122.4 143.283 122.24C144.803 121.92 147.443 123.36 147.603 123.44C147.683 123.52 148.562 124.24 149.763 125.36L151.522 127.6C151.522 127.68 145.363 124.16 144.483 124.32Z" fill="white"/>
<path d="M151.359 120C152.399 118.16 152.719 116.32 152.879 115.28C153.119 115.6 153.439 116 153.679 116.32C153.599 117.2 153.359 118.96 152.559 120.64C152.159 120.4 151.759 120.24 151.359 120Z" fill="white"/>
<path d="M122.32 134.56C124.64 131.84 129.6 132.96 130.64 133.28C130.72 133.76 130.88 134.32 130.96 134.96C129.76 134.64 124.88 133.52 122.32 134.56Z" fill="white"/>
<path d="M151.042 120.56C151.442 120.72 151.842 120.96 152.242 121.28C151.602 122.48 150.802 123.6 149.522 124.4C148.962 123.92 148.562 123.52 148.242 123.28C149.522 122.48 150.402 121.52 151.042 120.56Z" fill="white"/>
<path d="M155.363 136.96C155.283 136.96 155.203 136.96 155.203 136.96C154.803 136.88 154.483 136.56 154.483 136.08C154.083 129.2 147.363 124 147.283 123.92C147.043 123.76 146.883 123.44 146.883 123.12C146.883 122.8 147.043 122.56 147.363 122.4C151.683 120 151.763 114.56 151.763 114.56C151.763 114.16 152.003 113.84 152.403 113.68C152.803 113.52 153.203 113.68 153.443 113.92C158.083 119.28 158.563 125.12 158.243 129.04C157.843 133.28 156.403 136.32 156.323 136.4C156.003 136.8 155.683 136.96 155.363 136.96ZM149.283 123.28C150.963 124.72 154.163 128.08 155.603 132.48C155.843 131.44 156.163 130.16 156.243 128.8C156.643 124.32 155.603 120.32 153.203 116.8C152.803 118.8 151.843 121.44 149.283 123.28Z" fill="#252468"/>
<path d="M157.2 126.64C156.88 126.64 156.64 126.48 156.4 126.24C156.32 126.16 153.68 122.4 150.48 121.04C150 120.8 149.76 120.32 150 119.84C150.24 119.36 150.72 119.12 151.2 119.36C154.88 120.96 157.76 125.04 157.92 125.2C158.24 125.6 158.08 126.16 157.68 126.48C157.6 126.56 157.44 126.64 157.2 126.64Z" fill="#252468"/>
<path d="M142.8 151.36C142.64 151.36 142.56 151.36 142.4 151.36C132.88 151.2 128.64 148.72 128.48 148.56C128.08 148.32 127.92 147.76 128.16 147.28C132.56 139.52 129.36 130.88 129.28 130.8C129.12 130.32 129.36 129.76 129.76 129.6C133.92 127.92 137.2 125.28 139.6 123.28C141.12 122 142.16 121.2 142.96 120.96C144.96 120.48 147.84 122.16 148.16 122.32C148.64 122.56 148.72 123.12 148.48 123.6C148.24 124.08 147.68 124.16 147.2 123.92C146.24 123.36 144.32 122.48 143.36 122.72C142.96 122.8 141.76 123.76 140.72 124.64C138.56 126.48 135.28 129.12 131.2 130.96C131.92 133.36 133.6 140.4 130.16 147.28C131.76 147.92 135.68 149.28 142.4 149.36C150.72 149.52 152.96 145.04 153.2 144.56C153.36 144 154.88 138.72 154.4 136.08C154.32 135.6 154.64 135.12 155.12 135.04C155.6 134.96 156.08 135.28 156.16 135.76C156.72 139.04 154.96 144.96 154.88 145.2V145.28C154.88 145.6 152.4 151.36 142.8 151.36Z" fill="#252468"/>
<path d="M125.923 149.44C124.003 149.44 122.723 148.64 121.923 147.76C119.123 144.88 118.883 138.88 120.483 135.2C122.883 129.6 130.803 132 131.123 132.08C131.603 132.24 131.923 132.72 131.763 133.2C131.603 133.68 131.123 134 130.643 133.84C130.563 133.84 123.923 131.84 122.243 135.84C120.963 138.88 121.123 144.16 123.283 146.4C124.563 147.68 126.323 147.84 128.643 146.88C129.123 146.72 129.683 146.88 129.843 147.36C130.003 147.84 129.843 148.4 129.363 148.56C128.003 149.2 126.883 149.44 125.923 149.44Z" fill="#252468"/>
<path d="M117.363 111.6C128.497 111.6 137.523 101.141 137.523 88.24C137.523 75.3386 128.497 64.88 117.363 64.88C106.229 64.88 97.2031 75.3386 97.2031 88.24C97.2031 101.141 106.229 111.6 117.363 111.6Z" fill="url(#paint2_radial_1614_52930)"/>
<path d="M85.7616 109.04C96.8956 109.04 105.922 98.5813 105.922 85.6799C105.922 72.7786 96.8956 62.3199 85.7616 62.3199C74.6275 62.3199 65.6016 72.7786 65.6016 85.6799C65.6016 98.5813 74.6275 109.04 85.7616 109.04Z" fill="url(#paint3_radial_1614_52930)"/>
<path d="M115.357 56.08C114.877 55.76 114.397 55.36 113.917 55.04C114.237 54.56 114.557 54 114.797 53.52C116.317 54.56 117.837 55.68 119.197 56.96C118.877 57.44 118.557 58 118.237 58.48C117.837 58.08 117.357 57.68 116.877 57.28C115.997 58.72 115.117 60.16 114.317 61.52C113.837 61.04 113.357 60.64 112.797 60.24C113.677 58.88 114.477 57.44 115.357 56.08Z" fill="#252468"/>
<path d="M108.397 51.6801C108.237 52.0001 108.077 52.3201 107.917 52.6401C108.637 53.0401 109.357 53.4401 110.077 53.8401C109.837 54.3201 109.517 54.8001 109.277 55.2801C108.557 54.8801 107.837 54.4801 107.117 54.0801C106.797 54.6401 106.477 55.2001 106.237 55.7601C105.677 55.4401 105.117 55.1201 104.477 54.8801C105.357 53.1201 106.317 51.2801 107.357 49.4401C108.877 50.0801 110.317 50.8001 111.757 51.6001C111.437 52.0801 111.197 52.5601 110.957 53.0401C110.077 52.5601 109.197 52.1601 108.397 51.6801Z" fill="#252468"/>
<path d="M102.083 47.6001C102.723 47.7601 103.363 48.0001 104.003 48.1601C103.283 49.5201 102.643 50.8001 102.003 52.1601C102.803 52.4801 103.683 52.8001 104.483 53.1201C104.243 53.6001 104.003 54.0801 103.763 54.4801C102.403 53.8401 100.963 53.2801 99.5234 52.8001C100.243 51.2001 101.123 49.4401 102.083 47.6001Z" fill="#252468"/>
<path d="M99.2819 51.3601C99.0419 51.7601 98.8819 52.2401 98.6419 52.6401C97.1219 52.1601 95.5219 51.7601 93.9219 51.5201C94.6419 49.9201 95.3619 48.2401 96.2419 46.4801C97.8419 46.7201 99.5219 47.0401 101.042 47.4401C100.802 47.9201 100.562 48.3201 100.402 48.8001C99.4419 48.5601 98.5619 48.3201 97.6019 48.1601C97.5219 48.4001 97.4419 48.5601 97.2819 48.8001C98.0819 48.9601 98.9619 49.1201 99.7619 49.3601C99.5219 49.7601 99.3619 50.2401 99.1219 50.6401C98.3219 50.4001 97.5219 50.2401 96.7219 50.0801C96.6419 50.3201 96.4819 50.5601 96.4019 50.7201C97.4419 50.8801 98.4019 51.1201 99.2819 51.3601Z" fill="#252468"/>
<path d="M90.4 51.2001C89.92 51.1201 89.44 51.0401 89.04 50.9601C88.64 50.8801 88.24 50.7201 88 50.5601C88.4 50.1601 88.72 49.8401 89.12 49.4401C89.36 49.6001 89.6 49.6801 89.92 49.7601C90.24 49.8401 90.56 49.9201 90.88 49.9201C91.12 49.9201 91.36 49.9201 91.52 49.9201C91.68 49.9201 91.76 49.8401 91.76 49.7601C91.84 49.6801 91.76 49.6001 91.6 49.5201C91.44 49.4401 91.2 49.3601 90.88 49.2801C90.48 49.2001 90.08 49.0401 89.84 48.9601C89.6 48.8801 89.36 48.7201 89.2 48.4801C89.04 48.2401 89.04 48.0001 89.2 47.6001C89.36 47.2801 89.52 47.0401 89.92 46.7201C90.24 46.4801 90.64 46.2401 91.12 46.0801C91.6 45.9201 92.16 45.8401 92.8 45.9201C93.2 45.9201 93.6 46.0001 94 46.1601C94.4 46.2401 94.64 46.4001 94.88 46.6401C94.48 47.0401 94.08 47.4401 93.68 47.8401C93.2 47.5201 92.72 47.3601 92.16 47.3601C91.6 47.3601 91.36 47.4401 91.2 47.6001C91.12 47.6801 91.2 47.7601 91.36 47.8401C91.52 47.9201 91.76 48.0001 92.08 48.0801C92.48 48.1601 92.88 48.3201 93.12 48.4001C93.36 48.5601 93.6 48.7201 93.76 48.9601C93.92 49.2001 93.92 49.5201 93.76 49.8401C93.6 50.1601 93.36 50.4001 93.12 50.6401C92.8 50.8801 92.4 51.0401 91.92 51.1201C91.52 51.2001 91.04 51.2001 90.4 51.2001Z" fill="#252468"/>
<path fill-rule="evenodd" clip-rule="evenodd" d="M113.761 51.68C114.241 51.92 114.321 52.56 114.081 53.04C113.761 53.52 113.201 53.68 112.721 53.36C112.241 53.04 112.081 52.48 112.401 52C112.721 51.52 113.361 51.36 113.761 51.68Z" fill="white"/>
<path fill-rule="evenodd" clip-rule="evenodd" d="M112.001 53.6001C112.321 53.7601 112.561 54.0001 112.881 54.1601C113.121 54.3201 113.121 54.5601 113.041 54.8001C112.241 56.0801 111.521 57.4401 110.801 58.6401C110.321 58.2401 109.761 57.9201 109.281 57.6001C110.001 56.3201 110.641 55.0401 111.441 53.7601C111.521 53.6001 111.841 53.5201 112.001 53.6001Z" fill="white"/>
<path d="M113.365 135.12H111.445V133.2H117.605V135.12H115.605V140.48H113.365V135.12Z" fill="#252468"/>
<path d="M104.326 135.04V136.32H107.046V138.16H104.326V140.48H102.086V133.2H107.446V135.04H104.326Z" fill="#252468"/>
<path d="M95.9219 133.2H98.1619V138.56H101.122V140.48H95.9219V133.2Z" fill="#252468"/>
<path d="M94.9653 138.64V140.48H89.4453V133.2H94.8853V135.04H91.6853V135.92H94.4853V137.68H91.6853V138.64H94.9653Z" fill="#252468"/>
<path d="M85.4425 140.64C84.8825 140.64 84.3225 140.56 83.8425 140.4C83.2825 140.24 82.8825 140.08 82.5625 139.84L83.2825 138.08C83.6025 138.24 83.9225 138.4 84.3225 138.56C84.7225 138.72 85.1225 138.72 85.4425 138.72C85.7625 138.72 86.0025 138.72 86.0825 138.64C86.2425 138.56 86.2425 138.48 86.2425 138.32C86.2425 138.16 86.1625 138.08 86.0025 138C85.8425 137.92 85.5225 137.84 85.1225 137.76C84.6425 137.68 84.1625 137.52 83.8425 137.36C83.5225 137.2 83.2025 137.04 82.9625 136.72C82.7225 136.4 82.5625 136 82.5625 135.44C82.5625 134.96 82.6425 134.56 82.8825 134.24C83.1225 133.84 83.4425 133.6 83.9225 133.36C84.4025 133.12 84.9625 133.04 85.6025 133.04C86.0825 133.04 86.4825 133.12 86.9625 133.2C87.3625 133.28 87.7625 133.44 88.1625 133.68L87.5225 135.44C86.8825 135.12 86.2425 134.88 85.6825 134.88C85.1225 134.88 84.8025 135.04 84.8025 135.36C84.8025 135.52 84.8825 135.6 85.0425 135.68C85.2025 135.76 85.5225 135.84 85.9225 135.92C86.4025 136 86.8825 136.16 87.2025 136.24C87.5225 136.4 87.8425 136.56 88.0825 136.88C88.3225 137.2 88.4825 137.6 88.4825 138.08C88.4825 138.56 88.4025 138.96 88.1625 139.28C87.9225 139.68 87.6025 139.92 87.1225 140.16C86.7225 140.56 86.1625 140.64 85.4425 140.64Z" fill="#252468"/>
<path fill-rule="evenodd" clip-rule="evenodd" d="M109.446 132.16C110.006 132.16 110.486 132.64 110.486 133.2C110.486 133.76 110.006 134.24 109.446 134.24C108.886 134.24 108.406 133.76 108.406 133.2C108.406 132.64 108.886 132.16 109.446 132.16Z" fill="white"/>
<path fill-rule="evenodd" clip-rule="evenodd" d="M108.886 134.96H110.086C110.326 134.96 110.566 135.2 110.566 135.44V140.48H108.406V135.44C108.406 135.2 108.646 134.96 108.886 134.96Z" fill="white"/>
<path d="M43.5182 69.76C43.6782 66.72 42.9583 63.6 41.1182 60.88C36.7183 54.24 27.7582 52.4 21.1182 56.88C14.4782 61.36 12.6382 70.24 17.1182 76.88C21.5182 83.52 30.4782 85.36 37.1182 80.88C38.9583 79.68 40.4783 78.08 41.5182 76.32L48.1582 74.56L43.5182 69.76Z" fill="white"/>
<g opacity="0.5">
<path d="M27.9226 57.2C35.3626 56.4 42.0026 61.44 43.5226 68.56C43.5226 68.08 43.5226 67.52 43.4426 67.04C42.6426 59.12 35.5226 53.36 27.6026 54.16C19.6826 54.96 13.9226 62.08 14.7226 70C14.8026 70.56 14.8826 71.04 14.9626 71.52C14.9626 64.24 20.4826 58 27.9226 57.2Z" fill="white"/>
</g>
<path d="M36.3991 82.8C29.3591 86.48 20.4791 84.32 15.9991 77.6C11.1991 70.4 13.1991 60.56 20.3991 55.76C27.5991 50.96 37.4391 52.96 42.2391 60.16C44.0791 62.88 44.9591 66 44.8791 69.28L49.1191 73.6C49.4391 73.92 49.5191 74.4 49.4391 74.8C49.3591 75.2 48.9591 75.6 48.5591 75.68L42.3991 77.36C41.1991 79.2 39.6791 80.72 37.9191 81.92C37.3591 82.24 36.8791 82.48 36.3991 82.8ZM22.6391 56.48C22.2391 56.72 21.8391 56.96 21.4391 57.2C15.0391 61.44 13.2791 70.16 17.5191 76.56C21.7591 82.96 30.4791 84.72 36.8791 80.48C38.6391 79.36 40.0791 77.84 41.1191 76.08C41.2791 75.76 41.5991 75.6 41.9191 75.44L46.7191 74.16L43.4391 70.8C43.1991 70.56 43.0391 70.16 43.0391 69.76C43.1991 66.72 42.4791 63.76 40.7191 61.12C36.7191 55.12 28.8791 53.2 22.6391 56.48Z" fill="#252468"/>
<g opacity="0.13">
<path d="M43.5219 69.6C41.6019 74.4 37.4419 78.24 32.0019 79.6C26.0019 81.04 19.9219 79.12 15.9219 74.88C16.2419 75.52 16.5619 76.24 17.0419 76.8C21.4419 83.44 30.4019 85.28 37.0419 80.8C38.8819 79.6 40.4019 78 41.4419 76.24L48.0819 74.48L43.5219 69.76C43.5219 69.68 43.5219 69.68 43.5219 69.6Z" fill="#252468"/>
</g>
<path d="M21.7609 61.5199L20.9609 62.7199L22.0809 77.4399L35.8409 77.1199L36.6409 61.8399C36.7209 61.8399 22.4009 61.5199 21.7609 61.5199ZM31.8409 69.5199C31.8409 69.5199 29.0409 68.0799 25.6009 68.9599L23.9209 66.2399C23.9209 66.2399 31.5209 63.9199 33.9209 66.6399L31.8409 69.5199Z" fill="#5DB075"/>
<path d="M20.3984 63.6799C20.3984 63.4399 20.3984 63.2799 20.3984 63.0399V62.9599C20.6384 61.7599 21.6784 60.7999 22.8784 60.7999C26.9584 60.7999 31.0384 60.7999 35.1984 60.7999C36.3184 60.7999 37.3584 61.5999 37.5984 62.7199C37.5984 62.8799 37.6784 62.9599 37.6784 63.1199C37.6784 63.2799 37.6784 63.5199 37.6784 63.6799C37.6784 63.7599 37.6784 63.7599 37.6784 63.8399C37.6784 64.1599 37.5984 64.5599 37.5984 64.8799C37.4384 66.7199 37.2784 68.5599 37.1984 70.3999C37.0384 72.1599 36.9584 73.9199 36.7984 75.6799C36.7184 76.7999 35.9184 77.6799 34.8784 77.9199C34.7984 77.9199 34.6384 77.9999 34.5584 77.9999C30.9584 77.9999 27.2784 77.9999 23.6784 77.9999H23.5984C22.5584 77.8399 21.6784 77.1199 21.5184 76.0799C21.4384 75.5999 21.3584 75.0399 21.3584 74.5599C21.1984 73.0399 21.1184 71.4399 21.0384 69.8399C20.8784 68.0799 20.7984 66.3199 20.6384 64.5599C20.4784 64.3999 20.4784 63.9999 20.3984 63.6799ZM29.1184 61.8399C27.1184 61.8399 25.1184 61.8399 23.0384 61.8399C21.9984 61.8399 21.3584 62.5599 21.4384 63.5999C21.5184 64.7199 21.5984 65.8399 21.6784 66.9599C21.7584 68.2399 21.8384 69.4399 21.9984 70.7199C22.0784 71.9999 22.1584 73.2799 22.3184 74.6399C22.3184 75.0399 22.3984 75.3599 22.3984 75.7599C22.4784 76.6399 23.1184 77.1999 23.9984 77.1999C27.4384 77.1999 30.7984 77.1999 34.2384 77.1999C34.3184 77.1999 34.3184 77.1999 34.3984 77.1999C35.1184 77.1999 35.7584 76.5599 35.8384 75.8399C35.9184 74.8799 35.9984 73.9199 36.0784 72.9599C36.1584 71.5199 36.3184 70.1599 36.3984 68.7199C36.4784 67.1999 36.6384 65.5999 36.7184 64.0799C36.7184 63.8399 36.7984 63.5199 36.7184 63.2799C36.6384 62.4799 35.9984 61.9199 35.1984 61.9199C33.1184 61.8399 31.1184 61.8399 29.1184 61.8399Z" fill="#252468" stroke="#252468" stroke-miterlimit="10"/>
<path d="M35.0391 66.3199C33.9991 67.6799 33.0391 69.0399 31.9991 70.3199C29.9991 68.7999 28.0791 68.7999 26.0791 70.3199C25.0391 68.9599 24.0791 67.5999 23.0391 66.3199C26.2391 63.5999 31.3591 63.1999 35.0391 66.3199ZM33.6791 66.4799C32.1591 65.5199 30.5591 65.0399 28.7191 65.1199C27.1991 65.1999 25.8391 65.5999 24.5591 66.4799C25.1991 67.2799 25.7591 68.0799 26.3991 68.8799C27.1191 68.4799 27.8391 68.2399 28.6391 68.1599C28.6391 67.4399 28.6391 66.7999 28.6391 66.1599C28.9591 66.1599 29.2791 66.1599 29.6791 66.1599C29.6791 66.8799 29.6791 67.5199 29.6791 68.1599C30.4791 68.2399 31.1991 68.4799 31.9191 68.8799C32.3991 68.1599 33.0391 67.3599 33.6791 66.4799Z" fill="#252468" stroke="#252468" stroke-miterlimit="10" stroke-linecap="round" stroke-linejoin="round"/>
<path d="M62.6399 36.32C64.5599 33.92 65.6798 30.96 65.7598 27.6C65.9198 19.6 59.5998 13.04 51.5998 12.8C43.5998 12.64 37.0398 18.96 36.7998 26.96C36.6398 34.96 42.9598 41.52 50.9598 41.76C53.1998 41.84 55.2798 41.36 57.1998 40.48L63.6798 42.8L62.6399 36.32Z" fill="white"/>
<g opacity="0.5">
<path d="M56.9562 17.04C63.5162 20.64 66.0762 28.56 63.2762 35.28C63.5962 34.88 63.8362 34.4 64.0762 34C67.9162 27.04 65.4362 18.24 58.4762 14.32C51.5162 10.48 42.7162 12.96 38.7962 19.92C38.5562 20.4 38.3163 20.88 38.1562 21.28C42.3162 15.44 50.4762 13.44 56.9562 17.04Z" fill="white"/>
</g>
<path d="M49.3569 42.88C41.4369 41.92 35.4369 35.04 35.5969 26.96C35.7569 18.32 43.0369 11.36 51.6769 11.6C60.3169 11.76 67.2769 19.04 67.0369 27.68C66.9569 30.96 65.9169 34.08 63.9969 36.64L64.9569 42.64C65.0369 43.12 64.8769 43.52 64.4769 43.84C64.1569 44.16 63.6769 44.24 63.1969 44.08L57.1969 41.92C55.1969 42.72 53.1169 43.12 50.8769 43.12C50.3969 42.96 49.9169 42.96 49.3569 42.88ZM53.0369 13.44C52.5569 13.36 52.0769 13.36 51.5969 13.36C43.9169 13.2 37.5169 19.28 37.3569 26.96C37.1969 34.64 43.2769 41.04 50.9569 41.2C53.0369 41.28 55.0369 40.8 56.9569 40C57.2769 39.84 57.5969 39.84 57.9969 40L62.6369 41.68L61.9169 37.04C61.8369 36.64 61.9169 36.32 62.1569 36C64.0769 33.6 65.1169 30.72 65.1969 27.6C65.4369 20.4 60.0769 14.32 53.0369 13.44Z" fill="#252468"/>
<g opacity="0.13">
<path d="M62.718 36.16C58.398 38.96 52.798 39.76 47.598 37.76C41.838 35.52 37.998 30.48 37.118 24.72C36.958 25.44 36.878 26.16 36.878 26.96C36.718 34.96 43.038 41.52 51.038 41.76C53.278 41.84 55.358 41.36 57.278 40.48L63.758 42.8L62.718 36.32C62.638 36.24 62.718 36.24 62.718 36.16Z" fill="#252468"/>
</g>
<path d="M47.6009 21.92H44.9609V32.88H47.6009V21.92Z" fill="#5DB075"/>
<path d="M57.9213 21.92H55.2812V32.88H57.9213V21.92Z" fill="#5DB075"/>
<path d="M59.7619 23.2H57.9219V31.6H59.7619V23.2Z" fill="#5DB075"/>
<path d="M44.7228 23.2H42.8828V31.6H44.7228V23.2Z" fill="#5DB075"/>
<path d="M40.6406 26.4C40.8006 26 40.9606 25.6 41.3606 25.44C41.6006 25.36 41.8406 25.36 42.0806 25.28C42.1606 25.28 42.2406 25.28 42.3206 25.28C42.3206 25.04 42.3206 24.72 42.3206 24.48C42.3206 23.84 42.5606 23.28 43.0406 22.88C43.4406 22.56 43.8406 22.48 44.3206 22.48C44.4806 22.48 44.6406 22.48 44.7206 22.24C44.9606 21.6 45.7606 21.12 46.4006 21.2C47.2806 21.28 47.8406 21.92 48.0006 22.64C48.0006 22.88 48.0006 23.12 48.0006 23.36C48.0006 24.16 48.0006 24.96 48.0006 25.76C50.2406 25.76 52.4806 25.76 54.7206 25.76C54.7206 25.44 54.7206 25.12 54.7206 24.8C54.7206 24.16 54.7206 23.6 54.7206 22.96C54.7206 21.92 55.3606 21.28 56.4006 21.2C57.0406 21.12 57.7606 21.6 58.0006 22.24C58.0806 22.4 58.1606 22.48 58.3206 22.48C58.8806 22.48 59.3606 22.56 59.7606 22.88C60.2406 23.28 60.4006 23.84 60.4006 24.4C60.4006 24.64 60.4006 24.88 60.4006 25.2C60.5606 25.2 60.6406 25.2 60.8006 25.2C61.5206 25.2 62.0006 25.76 62.0806 26.48C62.0806 27.04 62.0806 27.52 62.0806 28.08C62.0806 28.8 61.5206 29.28 60.8006 29.36C60.7206 29.36 60.5606 29.36 60.4806 29.36C60.4806 29.6 60.4806 29.92 60.4806 30.16C60.4806 30.64 60.4006 31.04 60.0806 31.36C59.6806 31.84 59.1206 32.16 58.4806 32.08C58.2406 32.08 58.0806 32.08 58.0006 32.4C57.6806 33.12 56.9606 33.44 56.1606 33.36C55.4406 33.28 54.8806 32.64 54.8006 31.84C54.8006 31.76 54.8006 31.6 54.8006 31.52C54.8006 29.92 54.8006 28.32 54.8006 26.72C54.8006 26.64 54.8006 26.56 54.8006 26.48C52.5606 26.48 50.4006 26.48 48.1606 26.48C48.1606 27.04 48.1606 27.6 48.1606 28.24C48.2406 28.24 48.3206 28.24 48.4006 28.24C50.1606 28.24 52.8806 28.24 54.6406 28.24C54.7206 28.24 54.8006 28.24 54.9606 28.24C55.1206 28.24 55.2006 28.4 55.2006 28.56C55.2006 28.72 55.1206 28.8 54.9606 28.8C54.8806 28.8 54.8006 28.8 54.7206 28.8C52.9606 28.8 50.2406 28.8 48.4806 28.8C48.4006 28.8 48.3206 28.8 48.2406 28.8C48.2406 28.88 48.2406 28.96 48.2406 29.04C48.2406 29.92 48.2406 30.72 48.2406 31.6C48.2406 32.4 47.7606 33.04 46.9606 33.28C46.1606 33.52 45.2006 33.12 44.8806 32.24C44.8006 32.08 44.7206 32 44.5606 32.08C43.8406 32.08 43.2806 31.92 42.8006 31.36C42.5606 30.96 42.4006 30.56 42.4006 30.16C42.4006 29.92 42.4006 29.68 42.4006 29.36C42.2406 29.36 42.1606 29.36 42.0806 29.36C41.4406 29.36 40.9606 28.96 40.8006 28.4C40.8006 28.32 40.8006 28.32 40.7206 28.24C40.6406 27.68 40.6406 27.04 40.6406 26.4ZM44.5606 31.52C44.5606 31.44 44.5606 31.36 44.5606 31.28C44.5606 29.36 44.5606 25.84 44.5606 23.92C44.5606 23.84 44.5606 23.76 44.5606 23.68C44.5606 23.52 44.6406 23.44 44.8006 23.44C44.9606 23.44 45.1206 23.52 45.1206 23.68C45.1206 23.76 45.1206 23.84 45.1206 23.92C45.1206 25.92 45.1206 29.6 45.1206 31.52C45.1206 31.68 45.1206 31.84 45.1206 31.92C45.2806 32.48 45.7606 32.8 46.2406 32.72C46.8806 32.64 47.2006 32.24 47.2006 31.6C47.2006 28.72 47.2006 25.84 47.2006 22.96C47.2006 22.32 46.7206 21.84 46.0806 21.84C45.4406 21.84 44.9606 22.32 44.9606 22.96C44.9606 23.28 44.9606 23.6 44.9606 23.84C44.9606 24.08 44.8006 24.24 44.6406 24.24C44.4806 24.24 44.3206 24.08 44.3206 23.84C44.3206 23.6 44.3206 23.36 44.3206 23.12C43.3606 22.96 42.6406 23.52 42.6406 24.48C42.6406 26.32 42.6406 28.24 42.6406 30.08C42.6406 30.24 42.6406 30.4 42.7206 30.56C43.1206 31.36 43.7606 31.68 44.5606 31.52ZM57.4406 27.44C57.4406 26.24 57.4406 25.04 57.4406 23.76C57.4406 23.44 57.4406 23.2 57.4406 22.88C57.3606 22.32 56.8006 21.84 56.2406 21.92C55.6806 22 55.2806 22.48 55.2806 23.12C55.2806 26 55.2806 28.8 55.2806 31.68C55.2806 31.76 55.2806 31.84 55.2806 31.92C55.3606 32.56 55.9206 32.96 56.4806 32.88C57.0406 32.8 57.4406 32.32 57.4406 31.68C57.4406 30.24 57.4406 28.8 57.4406 27.44ZM58.0806 23.2C58.0806 26 58.0806 28.72 58.0806 31.52C59.1206 31.68 59.6806 31.12 59.6806 30.16C59.6806 28.32 59.6806 26.48 59.6806 24.56C59.7606 23.6 59.0406 23.04 58.0806 23.2ZM42.2406 26C41.6006 25.92 41.2006 26.16 41.2006 26.8C41.2006 27.2 41.2006 27.6 41.2006 28C41.2006 28.64 41.6006 28.96 42.2406 28.8C42.2406 27.84 42.2406 26.88 42.2406 26ZM60.4006 26C60.4006 26.96 60.4006 27.92 60.4006 28.8C61.1206 28.88 61.3606 28.64 61.3606 27.92C61.3606 27.52 61.3606 27.2 61.3606 26.8C61.4406 26.24 61.0406 25.84 60.4006 26Z" fill="#252468" stroke="#252468" stroke-miterlimit="10"/>
<path d="M147.764 36.32C145.844 33.92 144.724 30.96 144.644 27.6C144.484 19.6 150.804 13.04 158.804 12.8C166.804 12.64 173.364 18.96 173.604 26.96C173.764 34.96 167.444 41.52 159.444 41.76C157.204 41.84 155.124 41.36 153.204 40.48L146.724 42.8L147.764 36.32Z" fill="white"/>
<g opacity="0.5">
<path d="M153.441 17.04C146.881 20.64 144.321 28.56 147.121 35.28C146.801 34.88 146.561 34.4 146.321 34C142.481 27.04 144.961 18.24 151.921 14.32C158.881 10.48 167.681 12.96 171.601 19.92C171.841 20.4 172.081 20.88 172.241 21.28C168.081 15.44 160.001 13.44 153.441 17.04Z" fill="white"/>
</g>
<path d="M159.442 43.0399C157.282 43.1199 155.122 42.7199 153.122 41.8399L147.202 44C146.802 44.16 146.322 44.0799 145.922 43.7599C145.602 43.4399 145.442 43.0399 145.442 42.5599L146.402 36.5599C144.482 33.9199 143.442 30.8799 143.362 27.5999C143.202 18.9599 150.082 11.7599 158.722 11.5199C167.362 11.3599 174.562 18.2399 174.802 26.8799C174.962 35.0399 168.962 41.8399 161.042 42.7999C160.562 42.9599 160.002 42.9599 159.442 43.0399ZM145.202 27.5999C145.282 30.6399 146.322 33.5999 148.242 35.9999C148.482 36.3199 148.562 36.6399 148.482 37.0399L147.762 41.6799L152.402 39.9999C152.722 39.9199 153.122 39.9199 153.442 39.9999C155.362 40.8799 157.362 41.2799 159.442 41.1999C167.122 41.0399 173.202 34.6399 173.042 26.9599C172.882 19.2799 166.482 13.1999 158.802 13.3599C158.322 13.3599 157.842 13.4399 157.362 13.4399C150.402 14.3199 145.042 20.3999 145.202 27.5999Z" fill="#252468"/>
<g opacity="0.13">
<path d="M147.681 36.16C152.001 38.96 157.601 39.76 162.801 37.76C168.561 35.52 172.401 30.48 173.281 24.72C173.441 25.44 173.521 26.16 173.521 26.96C173.681 34.96 167.361 41.52 159.361 41.76C157.121 41.84 155.041 41.36 153.121 40.48L146.641 42.8L147.681 36.32C147.761 36.24 147.761 36.24 147.681 36.16Z" fill="#252468"/>
</g>
<path d="M159.122 23.5999C159.122 23.5999 154.082 21.7599 152.882 25.9999C151.682 30.2399 156.002 35.2799 156.002 35.2799L159.122 34.9599L162.242 35.6799L165.682 28.5599C165.682 28.5599 166.242 24.3999 162.402 23.1999C159.922 22.7199 159.122 23.5999 159.122 23.5999Z" fill="#5DB075"/>
<path d="M156.965 36C156.725 35.92 156.485 35.84 156.165 35.76C155.525 35.52 155.045 35.04 154.725 34.48C154.245 33.68 153.765 32.8 153.285 31.92C152.725 30.88 152.325 29.84 152.005 28.8C151.765 27.76 151.685 26.64 152.085 25.6C152.645 24.08 154.485 22.48 156.645 22.56C157.205 22.56 157.845 22.72 158.325 22.96C158.405 22.96 158.405 23.04 158.485 23.04C158.405 22.64 158.405 22.32 158.325 21.92C158.165 21.2 158.005 20.48 157.605 19.84C157.525 19.68 157.365 19.52 157.285 19.36C157.125 19.12 157.125 18.8 157.365 18.64C157.605 18.48 157.925 18.56 158.085 18.8C158.485 19.28 158.725 19.84 158.885 20.4C158.885 20.48 158.965 20.56 158.965 20.64C159.045 20.56 159.125 20.48 159.205 20.32C159.685 19.68 160.405 19.36 161.125 19.2C161.685 19.04 162.325 19.04 162.885 19.12C163.285 19.12 163.445 19.28 163.445 19.68C163.525 20.56 163.445 21.36 163.125 22.16C163.045 22.4 162.965 22.56 162.805 22.72C163.205 22.96 163.605 23.12 164.005 23.36C165.045 24.08 165.765 24.96 166.005 26.24C166.165 27.2 166.085 28.16 165.845 29.04C165.605 29.76 165.365 30.4 165.045 31.04C164.485 32.16 163.925 33.2 163.285 34.32C162.965 34.88 162.485 35.36 161.925 35.68C161.605 35.84 161.285 35.92 160.965 36C160.725 36 160.565 36 160.325 36C159.925 35.92 159.525 35.84 159.125 35.68C158.885 35.6 158.725 35.6 158.485 35.68C158.085 35.84 157.685 35.92 157.285 36C157.365 36 157.205 36 156.965 36ZM165.365 27.04C165.365 26.72 165.285 26.24 165.125 25.84C164.165 23.68 161.525 22.88 159.525 24.32C159.205 24.56 159.045 24.56 158.725 24.32C158.085 23.92 157.445 23.6 156.645 23.6C155.765 23.52 155.045 23.84 154.325 24.32C153.365 25.04 152.805 26 152.885 27.28C152.885 28.16 153.125 28.96 153.445 29.76C153.925 30.96 154.565 32.08 155.205 33.28C155.445 33.76 155.685 34.16 156.085 34.48C156.485 34.88 157.045 35.12 157.605 34.96C158.005 34.88 158.405 34.8 158.805 34.64C159.045 34.56 159.285 34.56 159.525 34.64C159.765 34.72 160.085 34.88 160.325 34.96C161.205 35.2 161.925 34.96 162.485 34.24C162.565 34.08 162.725 33.92 162.805 33.76C163.525 32.56 164.245 31.28 164.805 29.92C165.045 29.04 165.365 28.16 165.365 27.04ZM162.645 20.08C162.245 20.16 161.925 20.16 161.525 20.24C160.965 20.32 160.405 20.56 160.085 21.12C159.685 21.76 159.605 22.4 159.605 23.12C159.685 23.12 159.765 23.04 159.765 23.04C160.325 22.8 160.965 22.64 161.605 22.64C161.765 22.64 161.845 22.56 162.005 22.48C162.565 21.76 162.645 20.96 162.645 20.08Z" fill="#252468" stroke="#252468" stroke-width="0.75" stroke-miterlimit="10"/>
<path d="M162.64 78.16C162.72 75.12 163.76 72.08 165.84 69.52C170.8 63.28 179.92 62.32 186.16 67.28C192.4 72.24 193.36 81.36 188.4 87.6C183.44 93.84 174.32 94.8 168.08 89.84C166.32 88.48 165.04 86.72 164.08 84.88L157.68 82.48L162.64 78.16Z" fill="white"/>
<g opacity="0.5">
<path d="M179.279 67.04C171.919 65.6 164.879 69.9999 162.719 76.9599C162.799 76.4799 162.799 75.92 162.959 75.44C164.479 67.6 172.079 62.4799 179.919 63.9999C187.759 65.5199 192.879 73.1199 191.359 80.9599C191.279 81.4399 191.119 81.9999 190.959 82.4799C191.519 75.1999 186.639 68.48 179.279 67.04Z" fill="white"/>
</g>
<path d="M167.197 90.8C165.517 89.44 164.157 87.76 163.117 85.84L157.117 83.68C156.717 83.52 156.397 83.12 156.317 82.72C156.237 82.24 156.397 81.84 156.717 81.52L161.277 77.6C161.437 74.32 162.637 71.28 164.717 68.72C170.157 61.92 180.077 60.88 186.797 66.32C193.597 71.76 194.637 81.68 189.197 88.4C184.077 94.72 175.117 96.08 168.397 91.76C168.077 91.44 167.677 91.12 167.197 90.8ZM166.157 69.84C164.237 72.24 163.197 75.12 163.117 78.24C163.117 78.64 162.957 78.96 162.637 79.2L159.117 82.24L163.757 83.92C164.077 84.08 164.317 84.32 164.477 84.56C165.357 86.4 166.637 88.08 168.317 89.36C174.317 94.16 183.117 93.2 187.917 87.2C192.717 81.2 191.757 72.4 185.757 67.6C185.357 67.28 184.957 67.04 184.557 66.72C178.717 62.96 170.717 64.16 166.157 69.84Z" fill="#252468"/>
<g opacity="0.13">
<path d="M162.634 78C164.154 82.96 167.914 87.12 173.194 88.96C179.034 90.96 185.274 89.52 189.594 85.76C189.194 86.4 188.794 87.04 188.314 87.6C183.354 93.84 174.234 94.8 167.994 89.84C166.234 88.48 164.954 86.72 163.994 84.88L157.594 82.48L162.554 78.16C162.634 78.08 162.634 78.08 162.634 78Z" fill="#252468"/>
</g>
<path d="M180.554 83.6H173.594V88.72H180.554V83.6Z" fill="#5DB075"/>
<path d="M180.554 80.72H173.594V82.72H180.554V80.72Z" fill="#5DB075"/>
<path d="M180.554 77.52H173.594V79.52H180.554V77.52Z" fill="#5DB075"/>
<path d="M180.554 74.64H173.594V76.64H180.554V74.64Z" fill="#5DB075"/>
<path d="M173.355 88.32C173.275 88.16 173.195 88 173.115 87.84C172.955 87.44 172.875 87.04 172.875 86.64C172.875 86.08 172.875 85.52 172.875 84.96C172.875 84.24 173.035 83.6 173.595 83.12C173.115 82.72 172.875 82.24 172.875 81.68C172.875 81.12 173.115 80.64 173.595 80.24C172.635 79.12 172.635 78.4 173.595 77.36C173.515 77.28 173.515 77.28 173.435 77.2C173.115 76.88 172.955 76.56 172.955 76.16C172.955 75.6 172.955 75.04 172.955 74.48C173.035 73.84 173.355 73.28 173.755 72.8C174.235 72.08 174.715 71.44 175.195 70.72C175.115 70.64 175.035 70.56 174.955 70.48C174.875 70.4 174.795 70.32 174.795 70.16C174.635 69.6 174.635 69.04 174.795 68.48C174.955 68.08 175.275 67.84 175.675 67.84C176.075 67.84 176.475 67.84 176.875 67.84C177.435 67.84 177.995 67.84 178.635 67.84C179.355 67.84 179.835 68.32 179.835 69.04C179.835 69.28 179.835 69.44 179.835 69.68C179.835 70.16 179.755 70.56 179.355 70.8C179.595 71.12 179.755 71.36 179.995 71.68C180.395 72.32 180.875 72.96 181.275 73.6C181.515 74 181.675 74.48 181.675 74.96C181.675 75.28 181.675 75.68 181.675 76C181.675 76.56 181.435 76.96 181.115 77.36L181.035 77.44C181.515 77.84 181.755 78.32 181.755 78.88C181.755 79.44 181.515 79.92 181.035 80.32C181.995 81.44 181.995 82.16 181.035 83.2C181.115 83.28 181.275 83.44 181.355 83.52C181.595 83.84 181.755 84.24 181.755 84.64C181.755 85.36 181.755 86 181.755 86.72C181.755 87.28 181.595 87.76 181.275 88.24V88.32C181.115 88.48 181.035 88.56 180.875 88.72H180.795C180.315 89.12 179.755 89.28 179.195 89.28C177.995 89.28 176.875 89.28 175.675 89.28C175.275 89.28 174.875 89.2 174.475 88.96C174.315 88.88 174.155 88.8 174.075 88.72C173.595 88.56 173.435 88.48 173.355 88.32ZM174.155 88.08C174.315 88.16 174.555 88.32 174.795 88.4C174.955 88.48 175.195 88.48 175.435 88.48C176.555 88.48 177.755 88.48 178.875 88.48C179.915 88.48 180.715 87.76 180.715 86.72C180.715 86 180.715 85.28 180.715 84.56C180.715 83.92 180.235 83.52 179.595 83.44C177.915 83.44 176.235 83.44 174.555 83.44C173.915 83.44 173.435 83.92 173.435 84.56C173.435 85.28 173.435 86 173.435 86.72C173.515 87.28 173.755 87.68 174.155 88.08ZM173.835 76.8C174.075 77.04 174.395 77.12 174.715 77.12C176.395 77.12 177.995 77.12 179.675 77.12C179.755 77.12 179.755 77.12 179.835 77.12C180.395 77.04 180.795 76.72 180.795 76.16C180.795 75.76 180.795 75.44 180.795 75.04C180.795 74.56 180.635 74.16 180.395 73.76C179.755 72.88 179.115 71.92 178.555 71.04C178.475 70.96 178.395 70.96 178.315 70.96C177.595 70.96 176.795 70.96 176.075 70.96C175.995 70.96 175.915 70.96 175.835 71.04C175.275 71.84 174.795 72.56 174.235 73.36C173.915 73.76 173.675 74.16 173.595 74.64C173.515 75.12 173.515 75.68 173.595 76.16C173.595 76.4 173.675 76.56 173.835 76.8ZM180.475 82.56C180.795 82.24 180.875 81.92 180.715 81.52C180.555 81.04 180.155 80.72 179.595 80.72C177.995 80.72 176.315 80.72 174.715 80.72C174.635 80.72 174.555 80.72 174.475 80.72C174.235 80.72 173.995 80.88 173.835 81.04C173.515 81.36 173.515 81.76 173.675 82.24C173.835 82.64 174.235 82.88 174.715 82.88C176.395 82.88 177.995 82.88 179.675 82.88C179.915 82.88 180.235 82.8 180.475 82.56ZM173.755 78.16C173.515 78.4 173.435 78.72 173.515 79.12C173.675 79.6 174.075 79.92 174.635 79.92C176.235 79.92 177.915 79.92 179.515 79.92C179.595 79.92 179.675 79.92 179.755 79.92C179.995 79.92 180.235 79.76 180.395 79.52C180.715 79.2 180.715 78.8 180.555 78.4C180.395 78 179.995 77.76 179.595 77.76C177.915 77.76 176.235 77.76 174.555 77.76C174.315 77.76 174.075 77.92 173.755 78.16ZM178.875 68.64C178.715 68.64 178.635 68.56 178.555 68.56C177.595 68.56 176.715 68.56 175.755 68.56C175.515 68.56 175.355 68.72 175.355 68.96C175.355 69.2 175.355 69.52 175.355 69.76C175.355 70 175.515 70.16 175.755 70.16C176.715 70.16 177.595 70.16 178.555 70.16C178.795 70.16 178.955 70 178.955 69.76C178.955 69.52 178.955 69.2 178.955 68.96C178.955 68.8 178.875 68.72 178.875 68.64Z" fill="#252468" stroke="#252468" stroke-miterlimit="10"/>
<defs>
<linearGradient id="paint0_linear_1614_52930" x1="42.8527" y1="119.957" x2="48.2672" y2="119.957" gradientUnits="userSpaceOnUse">
<stop stop-color="white"/>
<stop offset="1" stop-color="#B4B7DC"/>
</linearGradient>
<linearGradient id="paint1_linear_1614_52930" x1="156.789" y1="119.957" x2="151.375" y2="119.957" gradientUnits="userSpaceOnUse">
<stop stop-color="white"/>
<stop offset="1" stop-color="#B4B7DC"/>
</linearGradient>
<radialGradient id="paint2_radial_1614_52930" cx="0" cy="0" r="1" gradientUnits="userSpaceOnUse" gradientTransform="translate(116.861 88.4128) scale(24.1999 25.9883)">
<stop stop-color="#54B848"/>
<stop offset="0.7056" stop-color="#54B848" stop-opacity="0"/>
</radialGradient>
<radialGradient id="paint3_radial_1614_52930" cx="0" cy="0" r="1" gradientUnits="userSpaceOnUse" gradientTransform="translate(85.2841 85.8302) scale(24.1999 25.9883)">
<stop stop-color="#54B848"/>
<stop offset="0.7056" stop-color="#54B848" stop-opacity="0"/>
</radialGradient>
</defs>
</svg>
